<?xml version="1.0" encoding="utf-8"?>
<svg version="1.1" id="Layer_1"
xmlns="http://www.w3.org/2000/svg"
xmlns:xlink="http://www.w3.org/1999/xlink"
width="550px" height="400px"
xml:space="preserve">
<g id="PathID_1" transform="matrix(1.68692, 0, 0, 1.68713, 205.25, 121.5)" opacity="1">
<path style="fill:#58230D;fill-opacity:1" d="M-0.5 1.35Q0.5 3.35 3.1 4.25Q-2.3 4.9 -3 0.7Q-3.75 -3.55 0.2 -4.3Q-1.8 -1.05 -0.5 1.35" />
</g>
<g id="PathID_2" transform="matrix(1.68692, 0, 0, 1.68713, 205.25, 121.5)" opacity="1">
</g>
<filter id="filter9" x="-0.600905" y="-0.600905" width="2.65486" height="2.57735" >
<feComponentTransfer in="SourceGraphic">
	<feFuncR type="linear" slope="0"/>
	<feFuncG type="linear" slope="0"/>
	<feFuncB type="linear" slope="0"/>
</feComponentTransfer>
<feGaussianBlur stdDeviation="0 0" />
<feOffset result="1" dx="-24.5746" dy="-17.2073"/>
<feComponentTransfer in="SourceGraphic">
	<feFuncR type="linear" slope="0"/>
	<feFuncG type="linear" slope="0"/>
	<feFuncB type="linear" slope="0"/>
</feComponentTransfer>
<feGaussianBlur stdDeviation="0 0" />
<feOffset result="2" dx="24.5746" dy="17.2073"/>
<feComposite  in="1" in2="2" operator="arithmetic" k2="1" k3="-1"/>
<feComponentTransfer result="3">
	<feFuncR type="linear" Ue="0" intercept="0.643137"/>
	<feFuncG type="linear" Ue="0" intercept="0.388235"/>
	<feFuncB type="linear" Ue="0" intercept="0.286275"/>
	<feFuncA type="linear" xh="0" slope="0.410156"/>
</feComponentTransfer>
<feComposite  in="2" in2="1" operator="arithmetic" k2="1" k3="-1"/>
<feComponentTransfer result="4">
	<feFuncR type="linear" Ue="0" intercept="0"/>
	<feFuncG type="linear" Ue="0" intercept="0"/>
	<feFuncB type="linear" Ue="0" intercept="0"/>
	<feFuncA type="linear" xh="0" slope="0.410156"/>
</feComponentTransfer>
<feComposite result="5"  in="3" in2="4" operator="arithmetic" k2="1" k3="1"/>
<feComposite result="6"  in="5" in2="SourceGraphic" operator="atop"/>
<feFlood result="black"></feFlood>
<feComponentTransfer in="6">
	<feFuncR type="linear" slope="0"/>
	<feFuncG type="linear" slope="0"/>
	<feFuncB type="linear" slope="0"/>
</feComponentTransfer>
<feGaussianBlur stdDeviation="4.6 4.6" />
<feOffset dx="0" dy="0"/>
<feComposite  in2="black" operator="arithmetic" k2="-1" k3="1"/>
<feComponentTransfer result="7">
	<feFuncR type="linear" Ue="0" intercept="0.345098"/>
	<feFuncG type="linear" Ue="0" intercept="0.137255"/>
	<feFuncB type="linear" Ue="0" intercept="0.0509804"/>
	<feFuncA type="linear" xh="0" slope="1.5"/>
</feComponentTransfer>
<feComposite result="8"  in="7" in2="6" operator="in"/>
</filter>
<g style="filter:url(#filter9);">
<g id="PathID_3" transform="matrix(1.68692, 0, 0, 1.68713, 296.55, 130.1)" opacity="1">
<path style="fill:#288E81;fill-opacity:1" d="M3 -9.9Q17.3 1.6 26.8 19.5L26.1 26.2Q7.6 -8.4 -26.8 -26.15Q-9.35 -19.9 3 -9.9" />
</g>
<g id="PathID_4" transform="matrix(1.68692, 0, 0, 1.68713, 296.55, 130.1)" opacity="1">
</g>
</g>
<g id="PathID_5" transform="matrix(1.68692, 0, 0, 1.68713, 283.55, 173.75)" opacity="1">
<path style="fill:#58230D;fill-opacity:1" d="M-4.05 -13.85Q-7.75 -11.95 -9.1 -8.3Q-12.15 -16.1 -19.2 -23.7Q-25.85 -30.85 -33.35 -35.05Q-41 -39.35 -46.05 -38.35Q-51.7 -37.3 -52.15 -29.75Q-56.55 -36.35 -56.25 -42.3Q-55.95 -47.75 -51.65 -51.45Q-42.25 -59.4 -24.75 -54.1Q-5.4 -47.8 12.2 -26.25Q27.55 -7.45 40.1 20.85L47.4 36.3Q54.9 52.45 56.1 55.7Q57.95 60.8 33.6 17.25Q30.45 11.45 25.2 7.9Q20.4 4.6 15.25 4.15Q10.15 3.65 6.8 6.15Q3.25 8.8 3.1 14.05Q-4.8 5.7 -1.65 -0.5Q1.4 -6.7 14 -8.3Q6.95 -9.8 1.65 -7.25Q-3.4 -4.7 -5.3 0.85Q-8.5 -5.4 -6.3 -9.05Q-4 -12.95 4.95 -15.15Q-0.15 -15.9 -4.05 -13.85" />
</g>
<g id="PathID_6" transform="matrix(1.68692, 0, 0, 1.68713, 283.55, 173.75)" opacity="1">
</g>
<g id="PathID_7" transform="matrix(1.68692, 0, 0, 1.68713, 249.25, 118.05)" opacity="1">
<linearGradient
id="LinearGradID_1" gradientUnits="userSpaceOnUse" gradientTransform="matrix(-0.0112762, 0.0243835, -0.022049, -0.0101318, -3.65, -8.7)" spreadMethod ="pad" x1="-819.2" y1="0" x2="819.2" y2="0" >
<stop  offset="0" style="stop-color:#FFFFFF;stop-opacity:0.901961" />
<stop  offset="1" style="stop-color:#FFFFFF;stop-opacity:0" />
</linearGradient>
<path style="fill:url(#LinearGradID_1) " d="M-32.7 -1.05Q-34.55 -5.75 -33.4 -10.45Q-31.05 -19.85 -16.25 -19.8Q-6.4 -19 5.95 -11.45Q22.05 -1.6 33.85 15.9Q25.95 14.35 21.7 14.4Q13.1 14.65 8.85 19.85Q7.55 14.85 2 8.55Q-3.5 2.45 -10.25 -1.75Q-17.55 -6.35 -23.35 -6.5Q-29.9 -6.75 -32.7 -1.05" />
</g>
<g id="PathID_8" transform="matrix(1.68692, 0, 0, 1.68713, 249.25, 118.05)" opacity="1">
</g>
<g id="PathID_9" transform="matrix(1.40625, 0, 0, 1.40625, 190.5, 237.05)" opacity="1">
<path style="fill:#58230D;fill-opacity:1" d="M11.9 -28.4L11.9 -23Q11.9 -20.7 12.2 -20.1Q12.55 -19.5 13.85 -19.5L14.6 -19.5L15.7 -19.55L17.85 -19.55Q20.35 -19.55 21.7 -22.25L22.3 -23.5Q22.5 -23.95 23.05 -24Q23.6 -24 23.6 -23.3L23.5 -22.2L23.45 -21.1L23.65 -17.3Q23.85 -15.35 23.85 -13.9L23.85 -12.65Q23.85 -12.3 23.75 -12.15Q23.65 -12 23.35 -12Q22.75 -11.95 22.6 -12.95Q22.25 -15.05 21.05 -16.15Q20.4 -16.75 19.45 -16.95Q18.55 -17.15 15.95 -17.15L14.25 -17.15Q13.05 -17.15 12.6 -16.75Q12.2 -16.4 12.05 -15.3Q11.9 -14.05 11.9 -11.35L11.9 -9.1Q11.9 -5.6 12.45 -4.05Q12.85 -2.9 13.4 -2.5Q14 -2.15 15.2 -2.15Q25.35 -2.15 28.5 -8.3Q28.65 -8.6 28.8 -8.65Q29.05 -8.7 29.25 -8.45Q29.5 -8.25 29.5 -7.9Q29.5 -5.45 28.15 -3.15Q27.05 -1.15 25.4 -0.3Q23.75 0.5 21 0.5Q19.4 0.5 17.45 0.3L14.55 0.05Q12.95 -0.15 10.2 -0.15Q8.4 -0.15 4.65 0.1L3.2 0.15Q2.6 0.15 2.55 -0.4Q2.5 -0.85 3.1 -1.1Q4.5 -1.6 5 -2.2Q5.55 -2.85 5.85 -4.4Q6.15 -5.75 6.15 -8L6.15 -27.8Q6.15 -30.6 5.2 -31.6Q4.3 -32.6 1.4 -33Q0.75 -33.1 0.75 -33.75Q0.75 -34.35 1.55 -34.35L2.3 -34.25L3.55 -34.25L6.05 -34.15L15.55 -34.05Q23.75 -34.05 25.65 -34.25L26 -34.3Q26.75 -34.3 26.75 -33.45L26.9 -31.4Q27.1 -29.25 27.1 -28.3Q27.1 -26.4 26.1 -26.35Q25.65 -26.3 25.65 -27.45Q25.65 -29.9 23.8 -31Q22 -32.15 17.95 -32.15L14.9 -32.15L13.2 -31.95Q11.9 -31.55 11.9 -29.4L11.9 -28.4" />
</g>
<g id="PathID_10" transform="matrix(1.40625, 0, 0, 1.40625, 190.5, 237.05)" opacity="1">
</g>
<g id="PathID_11" transform="matrix(1.40625, 0, 0, 1.40625, 232.85, 237.05)" opacity="1">
<path style="fill:#58230D;fill-opacity:1" d="M13.6 -21.15Q17.65 -21.15 19.1 -19.05Q20.05 -17.8 20.05 -17Q20.05 -16.2 17.75 -14.95L16.7 -14.35L16.25 -14.2Q15.6 -14.2 15.55 -15.15Q15.4 -16.95 14.15 -18.25Q12.9 -19.6 11.3 -19.6Q9.25 -19.6 7.85 -17.6Q6.5 -15.6 6.5 -12.65Q6.5 -8.1 8.55 -5.15Q10.6 -2.25 13.8 -2.25Q16.55 -2.25 19.5 -4.3L19.8 -4.45Q20.2 -4.45 20.2 -4Q20.2 -3.1 18.3 -1.8Q14.95 0.7 11.2 0.7Q7.05 0.7 4.3 -2.1Q1.6 -4.9 1.6 -9.2Q1.6 -14.35 5 -17.75Q8.4 -21.15 13.6 -21.15" />
</g>
<g id="PathID_12" transform="matrix(1.40625, 0, 0, 1.40625, 232.85, 237.05)" opacity="1">
</g>
<g id="PathID_13" transform="matrix(1.40625, 0, 0, 1.40625, 262.2, 237.05)" opacity="1">
<path style="fill:#58230D;fill-opacity:1" d="M9.4 -28.9L9.4 -6.8L9.4 -6Q9.4 -3.5 10.1 -2.55Q10.8 -1.6 12.85 -1.25Q13.5 -1.1 13.6 -1Q13.75 -0.9 13.75 -0.55Q13.75 0.05 13.2 0.05L12.35 0Q10.35 -0.35 7.4 -0.35Q4.15 -0.35 2.85 -0.05L2.25 0Q1.75 0 1.75 -0.65Q1.75 -0.95 2.35 -1.25Q4.25 -2 4.25 -4.5L4.3 -5.95L4.35 -6.6L4.35 -26.7Q4.35 -29.95 3.8 -31.1Q3.25 -32.3 1.8 -32.3Q1.1 -32.3 1.1 -32.95Q1.1 -33.35 1.35 -33.45Q1.65 -33.6 2.85 -33.9Q6.05 -34.55 8 -35.7L8.85 -36.2Q9.05 -36.35 9.3 -36.4Q9.65 -36.4 9.65 -35.9L9.6 -34.6Q9.4 -31.25 9.4 -28.9" />
</g>
<g id="PathID_14" transform="matrix(1.40625, 0, 0, 1.40625, 262.2, 237.05)" opacity="1">
</g>
<g id="PathID_15" transform="matrix(1.40625, 0, 0, 1.40625, 281.5, 237.05)" opacity="1">
<path style="fill:#58230D;fill-opacity:1" d="M13.5 -11.9Q13.8 -13.05 13.8 -13.85Q13.8 -16.4 12.6 -18Q11.4 -19.6 9.5 -19.6Q7.1 -19.6 7.1 -17.6L7.15 -16.85L7.25 -16.4Q7.25 -14.7 3.35 -14.7Q2.35 -14.7 2.4 -15.55L2.5 -16.1L2.65 -16.75Q3 -18.35 4.2 -19.2Q6.85 -21.15 10.6 -21.15Q14.9 -21.15 17.05 -19.1Q18.75 -17.6 18.75 -13.8Q18.75 -11.9 18.6 -9.05L18.45 -4.65Q18.45 -2.05 20.5 -2.05Q21.2 -2.05 21.55 -2.25L22.15 -2.4Q22.5 -2.4 22.5 -2.05Q22.5 -1.45 21.5 -0.9L20.5 -0.35L19.65 0.15Q18.75 0.6 17.7 0.6Q15.5 0.6 14 -2.25Q9.35 0.75 6.25 0.75Q4.15 0.75 2.95 -0.45Q1.75 -1.7 1.75 -3.85Q1.75 -7.85 5.15 -9.65Q7.3 -10.7 13.5 -11.9M13 -10.45Q10.85 -10.6 8.9 -8.9Q6.95 -7.25 6.95 -5.25Q6.95 -1.95 9.6 -1.95Q11.25 -1.95 12.5 -2.7Q13.15 -3.1 13.4 -4.05Q13.7 -5.05 13.7 -7.3L13.7 -9.25L13.7 -9.75L13.55 -10.3Q13.4 -10.4 13 -10.45" />
</g>
<g id="PathID_16" transform="matrix(1.40625, 0, 0, 1.40625, 281.5, 237.05)" opacity="1">
</g>
<g id="PathID_17" transform="matrix(1.40625, 0, 0, 1.40625, 312.25, 237.05)" opacity="1">
<path style="fill:#58230D;fill-opacity:1" d="M9.4 -18L9.4 -5.75Q9.4 -3.55 10.05 -2.65Q10.7 -1.8 12.4 -1.8Q13.05 -1.8 14.1 -2.1Q15.2 -2.45 15.65 -2.8Q15.9 -3.05 16.05 -3.05Q16.35 -3.05 16.4 -2.5L16.5 -2.25L16.15 -1.85Q13.4 0.7 9.75 0.7Q6.95 0.7 5.65 -0.55Q4.35 -1.85 4.35 -4.5L4.35 -18L2.8 -18Q1.6 -18 1.6 -18.65Q1.6 -19.05 2.2 -19.5Q3.3 -20.2 5.3 -22.25Q7.3 -24.35 8 -25.4Q8.75 -26.65 9.15 -26.65Q9.35 -26.6 9.4 -26.25L9.4 -20.45L13 -20.45Q14 -20.45 14.45 -20.75L15.1 -21.2Q15.3 -21.35 15.55 -21.4Q15.95 -21.4 15.95 -20.95L15.75 -20.4Q15.6 -20.1 15.45 -19.3Q15.2 -18 14.1 -18L9.4 -18" />
</g>
<g id="PathID_18" transform="matrix(1.40625, 0, 0, 1.40625, 312.25, 237.05)" opacity="1">
</g>
<g id="PathID_19" transform="matrix(0.429688, 0, 0, 0.429688, 136.1, 256.7)" opacity="1">
<path style="fill:#000000;fill-opacity:1" d="M13.05 -13.3Q12.75 -13.6 12.75 -14.15Q12.75 -15.1 13.45 -15.7Q14.2 -16.35 15.2 -16.35Q17.3 -16.35 17.3 -14.3Q17.3 -13.1 16.25 -12.25Q15.2 -11.45 13.7 -11.45Q11.2 -11.45 9.45 -13.65Q7.75 -15.85 7.75 -18.9Q7.75 -23.45 11.65 -27.2Q16.3 -31.7 24.6 -31.7Q29.2 -31.7 36.55 -29.85Q39.9 -31.5 44.5 -31.5Q47.9 -31.5 50.5 -30.5Q53.1 -29.5 53.1 -27.9Q53.1 -25.8 49.5 -25.8Q47.05 -25.8 38.3 -28Q34.6 -25.8 34.6 -22.5Q34.6 -21 35.35 -20.6L37.85 -20.75Q41 -20.75 41 -19.6Q41 -18.75 39.05 -18.75Q37.25 -18.75 35.3 -19.2Q32.75 -18.85 29.25 -17.15Q20.4 -12.95 20.4 -6.25Q20.4 -2 24.35 -0.9Q23.45 -1.75 23.45 -3.85Q23.45 -8.9 28.5 -13.1Q33.6 -17.3 39.65 -17.3Q42.55 -17.3 44.3 -15.8Q46.1 -14.35 46.1 -11.9Q46.1 -6.9 40.65 -2.95Q35.2 1 28.45 1Q27.05 1 26.55 0.9Q28.6 3 32.95 3Q35.7 3 37.5 2.2L37.95 2.1Q38.65 2.3 38.65 2.8Q38.65 3.55 36.6 3.95Q34.55 4.4 32.95 4.4Q27.6 4.4 24.85 0.7Q21.15 -0.15 18.9 -2.25Q16.7 -4.35 16.7 -7.25Q16.7 -11 19.7 -14.2Q22.75 -17.4 27.45 -18.9Q30.8 -20.05 34.25 -20.25Q31.55 -20.8 31.55 -23.65Q31.55 -27.15 35.5 -28.85Q30.25 -29.9 26.6 -29.9Q19.55 -29.9 14.6 -26.4Q9.7 -22.9 9.7 -18Q9.7 -15.85 10.9 -14.4Q11.85 -13.3 13.05 -13.3Q13.35 -12.95 13.7 -12.95Q14.5 -12.95 14.5 -12.85M13.05 -13.3Q13.35 -12.5 14.6 -12.5Q14.5 -12.55 14.5 -12.85M51.55 -27.95Q51.55 -28.55 49.7 -29.2Q47.85 -29.9 45.35 -29.9Q41.9 -29.9 39.3 -28.95Q45.35 -27.25 49.7 -27.25Q51.55 -27.25 51.55 -27.95M44.6 -12.1Q44.6 -13.65 43.35 -14.65Q42.1 -15.7 40.15 -15.7Q35.1 -15.7 30.25 -11.45Q25.4 -7.25 25.4 -2.9Q25.4 -1.7 26 -0.65Q27.05 -0.45 28.25 -0.45Q33.9 -0.45 39.25 -4.3Q44.6 -8.2 44.6 -12.1" />
</g>
<g id="PathID_20" transform="matrix(0.429688, 0, 0, 0.429688, 136.1, 256.7)" opacity="1">
</g>
<g id="PathID_21" transform="matrix(0.429688, 0, 0, 0.429688, 154.6, 256.7)" opacity="1">
<path style="fill:#000000;fill-opacity:1" d="M25.25 -8.15Q25.25 -7.45 21.55 -3.05Q18.45 0.55 16.55 0.55Q15.2 0.55 14.3 -0.45Q13.45 -1.45 13.45 -2.9Q13.45 -4.1 13.9 -5.1Q14.4 -6.15 16.25 -8.7Q18.25 -11.75 18.25 -12.4Q18.25 -12.95 17.65 -12.95Q14.4 -12.95 6.95 0.35L5.2 0.3L3.1 0.35L7 -6.45Q10.2 -11.55 10.2 -12.7Q10.2 -12.95 10.05 -12.95Q9.1 -12.95 5.6 -7.85Q5.25 -7.4 4.85 -7.3Q4.25 -7.3 4.15 -7.95Q4.2 -8.3 4.4 -8.5L4.7 -8.5Q8.7 -14.3 10.25 -14.3Q11.4 -14.3 12.1 -13.35Q12.85 -12.4 12.85 -11.2Q12.85 -9.5 11 -7.35Q12.95 -11.2 14.55 -12.75Q16.2 -14.3 17.75 -14.3Q19.1 -14.3 19.95 -13.2Q20.85 -12.15 20.85 -10.7Q20.85 -8.95 18.5 -5.4Q16.3 -2.1 16.3 -1.3Q16.3 -0.8 16.75 -0.8Q18.65 -0.8 23.85 -8.3Q24.1 -8.8 24.55 -8.8Q25.25 -8.8 25.25 -8.15" />
</g>
<g id="PathID_22" transform="matrix(0.429688, 0, 0, 0.429688, 154.6, 256.7)" opacity="1">
</g>
<g id="PathID_23" transform="matrix(0.429688, 0, 0, 0.429688, 163.2, 256.7)" opacity="1">
<path style="fill:#000000;fill-opacity:1" d="M16.1 -11.6Q16.35 -11.65 16.35 -12.15Q16.35 -12.3 16.25 -12.4L16.65 -14.1Q17.65 -13.9 18.05 -13.9Q18.7 -13.9 20.5 -14.1Q20.2 -13.1 17.7 -9.4L12.25 0.1Q14.6 -1.65 16.5 -3.3Q18.4 -5 20.8 -8.1Q21.3 -8.8 21.7 -8.8Q22.35 -8.65 22.35 -8.15Q22.35 -7.6 19.55 -4.45Q16.5 -1.1 11.85 1.4L10.7 3.55Q7.35 9.75 3.1 13.15Q-1 16.45 -4.1 16.45Q-5.35 16.45 -6.15 15.65Q-7 14.9 -7 13.75Q-7 8.45 4.6 3.15L7.6 1.7L11.65 -5.1Q9.9 -1.7 8.65 -0.55Q7.45 0.55 6.05 0.55Q4.5 0.55 3.5 -0.7Q2.5 -2 2.5 -3.8Q2.5 -8.3 8.25 -11.9Q12.05 -14.3 14.3 -14.3Q16.2 -14.3 16.25 -12.4L16.1 -11.6M15 -12.15Q15 -12.95 14.3 -12.95Q12.4 -12.95 8.9 -8.7Q5.4 -4.45 5.4 -1.9Q5.4 -0.8 6.25 -0.8Q7.45 -0.8 10.75 -4.95Q15 -10.35 15 -12.15M6.95 2.85L6.55 3.45Q6.1 3.9 5.2 4.35Q-5.65 9.7 -5.65 13.85Q-5.65 14.4 -5.25 14.75Q-4.85 15.1 -4.2 15.1Q-1.75 15.1 0.7 12.45Q3.05 9.95 6.55 3.45Q7.45 3.1 7.25 3L6.95 2.85" />
</g>
<g id="PathID_24" transform="matrix(0.429688, 0, 0, 0.429688, 163.2, 256.7)" opacity="1">
</g>
<g id="PathID_25" transform="matrix(0.429688, 0, 0, 0.429688, 170.55, 256.7)" opacity="1">
<path style="fill:#000000;fill-opacity:1" d="M18.45 -26L6.4 -5.25Q4.75 -2.25 4.75 -1.4Q4.75 -0.8 5.1 -0.8Q6.9 -0.8 12.2 -8.3Q12.45 -8.8 13 -8.8Q13.6 -8.65 13.6 -8.15Q13.6 -7.8 13.2 -7.4L12.2 -6Q7.4 0.55 4.9 0.55Q3.65 0.55 2.85 -0.4Q2.05 -1.35 2.05 -2.75Q2.05 -4.2 2.65 -5.5Q3.3 -6.85 6.95 -12.9Q11.35 -20.2 14.65 -25.95Q15.65 -25.75 16.15 -25.75Q17 -25.75 18.45 -26" />
</g>
<g id="PathID_26" transform="matrix(0.429688, 0, 0, 0.429688, 170.55, 256.7)" opacity="1">
</g>
<g id="PathID_27" transform="matrix(0.429688, 0, 0, 0.429688, 174.05, 256.7)" opacity="1">
<path style="fill:#000000;fill-opacity:1" d="M13.65 -18.25Q13.65 -17.25 12.75 -16.35Q11.9 -15.45 10.8 -15.45Q9.2 -15.45 9.2 -17.05Q9.2 -18.05 10.1 -18.95Q11 -19.85 12 -19.85Q13.65 -19.85 13.65 -18.25M13.95 -8.1L13.65 -7.55L12.55 -6Q7.8 0.55 5.05 0.55Q3.7 0.55 2.8 -0.4Q1.9 -1.35 1.9 -2.8Q1.9 -4.35 3.65 -7.35L7.7 -14.1L9.1 -13.9Q9.75 -13.9 11.55 -14.1L5.85 -4.15Q4.75 -2.35 4.75 -1.4Q4.75 -0.8 5.35 -0.8Q7.25 -0.8 12.55 -8.3Q12.8 -8.8 13.25 -8.8Q13.95 -8.8 13.95 -8.1" />
</g>
<g id="PathID_28" transform="matrix(0.429688, 0, 0, 0.429688, 174.05, 256.7)" opacity="1">
</g>
<g id="PathID_29" transform="matrix(0.429688, 0, 0, 0.429688, 177.75, 256.7)" opacity="1">
<path style="fill:#000000;fill-opacity:1" d="M13.9 -17.65Q13.9 -16.45 10.75 -13.5Q10.65 -13 10.65 -12.45Q10.65 -11.1 11.9 -8.15Q12.65 -6.5 12.65 -5.35Q12.65 -2.9 10.3 -1.15Q8 0.55 4.85 0.55Q2.95 0.55 1.8 -0.5Q0.7 -1.6 0.7 -3.4Q0.7 -5.4 2.1 -7.3Q3.55 -9.25 5.2 -9.25Q5.6 -9.25 5.55 -9.15L7.2 -11.25L9.5 -14.15Q9.9 -15.85 10.85 -17.2Q11.85 -18.6 12.95 -18.6Q13.9 -18.6 13.9 -17.65M9.45 -8L9.4 -9.4L9.35 -11.55Q9.35 -12.7 9.45 -12.9Q9.05 -11.4 6.5 -8.55Q7 -8.3 7 -7.5Q7 -5.7 4.25 -5.1Q3.4 -4.9 2.8 -4.2Q2.25 -3.55 2.25 -2.8Q2.25 -2 2.75 -1.5Q3.3 -1 4.15 -1Q5.95 -1 7.7 -3.2Q9.45 -5.45 9.45 -8" />
</g>
<g id="PathID_30" transform="matrix(0.429688, 0, 0, 0.429688, 177.75, 256.7)" opacity="1">
</g>
<g id="PathID_31" transform="matrix(0.429688, 0, 0, 0.429688, 182.05, 256.7)" opacity="1">
<path style="fill:#000000;fill-opacity:1" d="M21.25 -8.2Q21.25 -7.8 20.85 -7.4L19.85 -6Q15.1 0.55 12.55 0.55Q11.15 0.55 10.25 -0.4Q9.4 -1.4 9.4 -2.9Q9.4 -4.75 11.3 -7.65Q14.15 -11.8 14.15 -12.45Q14.15 -12.95 13.6 -12.95Q12.4 -12.95 10 -10.2Q7.6 -7.5 3.15 0.45L1.6 0.35L-0.3 0.45L3.4 -6.95L5.6 -10.95Q6.35 -12.1 10.55 -19.35L14.45 -25.95L15.95 -25.8Q16.9 -25.8 18.4 -26.05Q15.75 -21.15 10.7 -13L7 -7.45Q10.8 -14.3 13.75 -14.3Q15.05 -14.3 15.95 -13.2Q16.85 -12.1 16.85 -10.65Q16.85 -8.85 14.6 -5.5Q12.3 -2.1 12.3 -1.35Q12.3 -0.8 12.8 -0.8Q14.45 -0.8 18.7 -6.75L19.5 -7.85L19.85 -8.3Q20.1 -8.8 20.6 -8.8Q21.25 -8.8 21.25 -8.2" />
</g>
<g id="PathID_32" transform="matrix(0.429688, 0, 0, 0.429688, 182.05, 256.7)" opacity="1">
</g>
<g id="PathID_33" transform="matrix(0.429688, 0, 0, 0.429688, 188.95, 256.7)" opacity="1">
<path style="fill:#000000;fill-opacity:1" d="M9.55 -3.3Q9.55 -2 8.35 -0.85Q7.2 0.25 5.9 0.25Q4.4 0.25 4.4 -1.3Q4.4 -2.5 5.55 -3.65Q6.75 -4.85 8 -4.85Q9.55 -4.85 9.55 -3.3" />
</g>
<g id="PathID_34" transform="matrix(0.429688, 0, 0, 0.429688, 188.95, 256.7)" opacity="1">
</g>
<g id="PathID_35" transform="matrix(0.429688, 0, 0, 0.429688, 197.75, 256.7)" opacity="1">
<path style="fill:#000000;fill-opacity:1" d="M28.9 -9.15Q29.35 -9.15 29.35 -8.9Q29.35 -9.2 29.5 -9.45Q29.9 -9.85 30.35 -9.85Q32.15 -9.85 32.15 -8Q32.15 -5.7 29.8 -5.7Q27.7 -5.7 27.7 -8.15Q27.7 -11.85 31.4 -15.45Q35.1 -19.1 38.95 -19.1Q44.25 -19.1 44.25 -13.4Q44.25 -7.85 38.95 -3.3Q33.65 1.25 27.2 1.25Q22.65 1.25 19.55 -1.8Q16.5 -4.85 16.5 -9.35Q16.5 -13.7 19.4 -17.6Q8.8 -19.5 8.8 -26.3Q8.8 -30.4 12.9 -33.1Q17 -35.8 23.05 -35.8Q31.4 -35.8 39.75 -30.3Q41.05 -30.65 42.6 -30.65Q48.05 -30.65 48.05 -27.7Q48.05 -25.9 45.8 -24.3Q47.85 -21.55 47.85 -18.9Q47.85 -17.8 46.9 -17.8Q46.15 -17.8 46.15 -19.1Q46.15 -21.4 44.8 -23.6Q41.6 -21 35.4 -19.05Q29.25 -17.15 24.4 -17.15L23.5 -17.15Q19.9 -12.05 19.9 -7.1Q19.9 -3.85 21.85 -2Q23.85 -0.15 27.3 -0.15Q34.05 -0.15 39.4 -6.65Q42.6 -10.55 42.6 -14Q42.6 -15.7 41.55 -16.7Q40.55 -17.7 38.85 -17.7Q36.05 -17.7 32.7 -14.6Q29.7 -11.85 29.5 -9.45Q29.15 -9.4 28.9 -9.15M46.6 -27.7Q46.6 -29.25 43.15 -29.25Q42 -29.25 40.8 -29.1Q43.6 -27.7 45.2 -25.2Q46.6 -26.65 46.6 -27.7M44.2 -24.55Q42.45 -26.8 39.55 -28.8Q35.3 -27.6 31 -24.6Q26.75 -21.6 24.1 -18.55Q28.6 -18.55 34.7 -20.4Q40.85 -22.25 44.2 -24.55M38.45 -29.9Q31.35 -33.55 23.1 -33.55Q18.1 -33.55 14.4 -31.2Q10.7 -28.85 10.7 -25.85Q10.7 -20.4 19.85 -18.75Q25.95 -27.3 38.45 -29.9" />
</g>
<g id="PathID_36" transform="matrix(0.429688, 0, 0, 0.429688, 197.75, 256.7)" opacity="1">
</g>
<g id="PathID_37" transform="matrix(0.429688, 0, 0, 0.429688, 215.3, 256.7)" opacity="1">
<path style="fill:#000000;fill-opacity:1" d="M20.1 -8.2Q20.1 -7.6 18.5 -6Q16.2 -3.75 14.1 -3.75Q13.25 -3.75 12.95 -4Q9.85 0.55 6.7 0.55Q5 0.55 3.8 -0.8Q2.65 -2.15 2.65 -4.05Q2.65 -8.05 7.8 -11.7Q11.4 -14.3 13.8 -14.3Q16.5 -14.3 16.5 -11.55Q16.5 -8.55 13.5 -4.9Q13.6 -5 14.05 -5Q15 -5 16.35 -5.9Q17.75 -6.85 18.65 -8.3Q19.1 -8.8 19.45 -8.8Q20.1 -8.8 20.1 -8.2M15.1 -11.5Q15.1 -13 13.8 -13Q11.85 -13 8.75 -8.9Q5.7 -4.8 5.7 -2Q5.7 -0.85 6.75 -0.85Q9.15 -0.85 12.05 -4.65Q11.3 -5.3 11.3 -6.3Q11.3 -7.7 12.4 -9.1Q13.5 -10.55 14.65 -10.55Q15.45 -10.55 15.3 -10.05Q15.1 -10.55 15.1 -11.5" />
</g>
<g id="PathID_38" transform="matrix(0.429688, 0, 0, 0.429688, 215.3, 256.7)" opacity="1">
</g>
<g id="PathID_39" transform="matrix(0.429688, 0, 0, 0.429688, 221.7, 256.7)" opacity="1">
<path style="fill:#000000;fill-opacity:1" d="M13.9 -17.65Q13.9 -16.45 10.75 -13.5Q10.65 -13 10.65 -12.45Q10.65 -11.1 11.9 -8.15Q12.65 -6.5 12.65 -5.35Q12.65 -2.9 10.3 -1.15Q8 0.55 4.85 0.55Q2.95 0.55 1.8 -0.5Q0.7 -1.6 0.7 -3.4Q0.7 -5.4 2.1 -7.3Q3.55 -9.25 5.2 -9.25Q5.6 -9.25 5.55 -9.15L7.2 -11.25L9.5 -14.15Q9.9 -15.85 10.85 -17.2Q11.85 -18.6 12.95 -18.6Q13.9 -18.6 13.9 -17.65M9.45 -8L9.4 -9.4L9.35 -11.55Q9.35 -12.7 9.45 -12.9Q9.05 -11.4 6.5 -8.55Q7 -8.3 7 -7.5Q7 -5.7 4.25 -5.1Q3.4 -4.9 2.8 -4.2Q2.25 -3.55 2.25 -2.8Q2.25 -2 2.75 -1.5Q3.3 -1 4.15 -1Q5.95 -1 7.7 -3.2Q9.45 -5.45 9.45 -8" />
</g>
<g id="PathID_40" transform="matrix(0.429688, 0, 0, 0.429688, 221.7, 256.7)" opacity="1">
</g>
<g id="PathID_41" transform="matrix(0.429688, 0, 0, 0.429688, 226, 256.7)" opacity="1">
<path style="fill:#000000;fill-opacity:1" d="M21 -8.15Q21 -7.6 17.45 -4.3Q15.1 -1.15 10.35 1.5L9.2 3.55Q5.6 9.95 1.65 13.15Q-2.5 16.45 -5.6 16.45Q-6.85 16.45 -7.65 15.65Q-8.45 14.9 -8.45 13.75Q-8.45 8.55 3.2 3.1L6 1.8L6.15 1.7L10.35 -5.1Q8.7 -1.75 7.45 -0.6Q6.25 0.55 4.85 0.55Q3.6 0.55 2.7 -0.45Q1.85 -1.45 1.85 -2.8Q1.85 -4.35 3.6 -6.65L7.65 -14.05L9.15 -13.95L11.5 -14.1L6.55 -5.5Q4.6 -2.3 4.6 -1.4Q4.6 -0.8 5.05 -0.8Q7.4 -0.8 12.75 -9.9L15.15 -14.05L16.8 -13.95L19 -14.1Q15.8 -8.45 10.75 0.05Q12.85 -1.4 14.9 -3.15Q16.95 -4.95 19.45 -8.15Q19.95 -8.8 20.3 -8.8Q21 -8.8 21 -8.15M5.55 2.75L5.1 3.4Q4.7 3.9 3.75 4.35Q-7.05 9.7 -7.05 13.85Q-7.05 15.15 -5.55 15.15Q-3.2 15.15 -0.7 12.45Q1.65 9.9 5.1 3.4Q6 3.05 5.8 2.95L5.55 2.75" />
</g>
<g id="PathID_42" transform="matrix(0.429688, 0, 0, 0.429688, 226, 256.7)" opacity="1">
</g>
<g id="PathID_43" transform="matrix(0.429688, 0, 0, 0.429688, 236.7, 256.7)" opacity="1">
<path style="fill:#000000;fill-opacity:1" d="M18.45 -26L6.4 -5.25Q4.75 -2.25 4.75 -1.4Q4.75 -0.8 5.1 -0.8Q6.9 -0.8 12.2 -8.3Q12.45 -8.8 13 -8.8Q13.6 -8.65 13.6 -8.15Q13.6 -7.8 13.2 -7.4L12.2 -6Q7.4 0.55 4.9 0.55Q3.65 0.55 2.85 -0.4Q2.05 -1.35 2.05 -2.75Q2.05 -4.2 2.65 -5.5Q3.3 -6.85 6.95 -12.9Q11.35 -20.2 14.65 -25.95Q15.65 -25.75 16.15 -25.75Q17 -25.75 18.45 -26" />
</g>
<g id="PathID_44" transform="matrix(0.429688, 0, 0, 0.429688, 236.7, 256.7)" opacity="1">
</g>
<g id="PathID_45" transform="matrix(0.429688, 0, 0, 0.429688, 240.2, 256.7)" opacity="1">
<path style="fill:#000000;fill-opacity:1" d="M17.9 -8.15Q17.9 -7.9 17.35 -7.2L16.4 -6.05Q11.05 0.55 7.15 0.55Q5.25 0.55 3.95 -0.8Q2.65 -2.2 2.65 -4.25Q2.65 -8.95 9.05 -12.45Q12.4 -14.3 14.55 -14.3Q15.65 -14.3 16.45 -13.6Q17.25 -12.95 17.25 -11.95Q17.25 -9.9 14.75 -8.55Q12.3 -7.25 7.05 -6.2Q5.6 -4 5.6 -2.45Q5.6 -0.85 7.3 -0.85Q10.9 -0.85 16.35 -8.2Q16.8 -8.8 17.3 -8.8Q17.9 -8.65 17.9 -8.15M14.85 -12.7Q14.85 -13 14.45 -13Q13.4 -13 11.35 -11.25Q9.35 -9.55 7.45 -7.5Q10.2 -8.35 12.5 -9.9Q14.85 -11.5 14.85 -12.7" />
</g>
<g id="PathID_46" transform="matrix(0.429688, 0, 0, 0.429688, 240.2, 256.7)" opacity="1">
</g>
<g id="PathID_47" transform="matrix(0.429688, 0, 0, 0.429688, 245.6, 256.7)" opacity="1">
<path style="fill:#000000;fill-opacity:1" d="M16.25 -11.7Q16.45 -11.85 16.45 -12.3L16.4 -12.45L16.7 -14.1Q17.75 -13.9 18.25 -13.9Q18.9 -13.9 20.55 -14.1L15.7 -5.9Q13.95 -2.5 13.95 -1.45Q13.95 -0.8 14.35 -0.8Q15.1 -0.8 17.15 -2.95Q19.2 -5.1 21.45 -8.4Q21.7 -8.8 22.1 -8.8Q22.8 -8.8 22.8 -8.15Q22.8 -7.45 19.2 -3.25Q16.05 0.55 14.1 0.55Q12.75 0.55 11.9 -0.4Q11.1 -1.4 11.1 -2.9Q11.1 -4.35 11.85 -5.25Q10.35 -2.05 8.95 -0.75Q7.55 0.55 6.1 0.55Q4.55 0.55 3.55 -0.7Q2.55 -1.95 2.55 -3.85Q2.55 -8.85 9.9 -12.65Q12.45 -14.3 14.35 -14.3Q16.35 -14.3 16.4 -12.45L16.25 -11.7M15.05 -12.2Q15.05 -12.95 14.4 -12.95Q12.45 -12.95 8.9 -8.7Q5.4 -4.45 5.4 -1.85Q5.4 -0.8 6.25 -0.8Q7.7 -0.8 11.7 -6.2Q15.05 -10.7 15.05 -12.2" />
</g>
<g id="PathID_48" transform="matrix(0.429688, 0, 0, 0.429688, 245.6, 256.7)" opacity="1">
</g>
<g id="PathID_49" transform="matrix(0.429688, 0, 0, 0.429688, 253.2, 256.7)" opacity="1">
<path style="fill:#000000;fill-opacity:1" d="M19.5 -8.15Q19.5 -7.75 17.55 -5.85Q15.9 -3.8 14 -3.8Q11.65 -3.8 11.65 -6.45Q11.65 -7.2 11.9 -7.7Q11.3 -6.5 10.35 -5.2Q9.45 -3.95 6.9 0.35L5.05 0.3L3.1 0.35L7.15 -6.9Q10.15 -11.7 10.15 -12.75Q10.15 -12.95 10.05 -12.95Q9 -12.95 5.5 -7.8Q5.2 -7.3 4.6 -7.3Q4.1 -7.45 4.1 -8Q4.15 -8.3 4.35 -8.5L4.85 -9.25Q8.65 -14.3 10.25 -14.3Q12.8 -14.3 12.8 -11.25Q12.8 -9.25 10.75 -6.75Q11.15 -8.05 12.25 -8.95Q13.15 -11.1 14.6 -12.7Q16.1 -14.3 17.4 -14.3Q18.75 -14.3 18.75 -13.1Q18.75 -11.7 15.05 -9.35L13.45 -8.35L13.3 -8.25Q13.05 -7.3 13.05 -6.65Q13.05 -5.1 14 -5.1Q15.65 -5.1 17.75 -8Q18.45 -8.8 18.8 -8.8Q19.5 -8.8 19.5 -8.15" />
</g>
<g id="PathID_50" transform="matrix(0.429688, 0, 0, 0.429688, 253.2, 256.7)" opacity="1">
</g>
<g id="PathID_51" transform="matrix(0.429688, 0, 0, 0.429688, 259.3, 256.7)" opacity="1">
<path style="fill:#000000;fill-opacity:1" d="M25.25 -8.15Q25.25 -7.45 21.55 -3.05Q18.45 0.55 16.55 0.55Q15.2 0.55 14.3 -0.45Q13.45 -1.45 13.45 -2.9Q13.45 -4.1 13.9 -5.1Q14.4 -6.15 16.25 -8.7Q18.25 -11.75 18.25 -12.4Q18.25 -12.95 17.65 -12.95Q14.4 -12.95 6.95 0.35L5.2 0.3L3.1 0.35L7 -6.45Q10.2 -11.55 10.2 -12.7Q10.2 -12.95 10.05 -12.95Q9.1 -12.95 5.6 -7.85Q5.25 -7.4 4.85 -7.3Q4.25 -7.3 4.15 -7.95Q4.2 -8.3 4.4 -8.5L4.7 -8.5Q8.7 -14.3 10.25 -14.3Q11.4 -14.3 12.1 -13.35Q12.85 -12.4 12.85 -11.2Q12.85 -9.5 11 -7.35Q12.95 -11.2 14.55 -12.75Q16.2 -14.3 17.75 -14.3Q19.1 -14.3 19.95 -13.2Q20.85 -12.15 20.85 -10.7Q20.85 -8.95 18.5 -5.4Q16.3 -2.1 16.3 -1.3Q16.3 -0.8 16.75 -0.8Q18.65 -0.8 23.85 -8.3Q24.1 -8.8 24.55 -8.8Q25.25 -8.8 25.25 -8.15" />
</g>
<g id="PathID_52" transform="matrix(0.429688, 0, 0, 0.429688, 259.3, 256.7)" opacity="1">
</g>
<g id="PathID_53" transform="matrix(0.429688, 0, 0, 0.429688, 267.9, 256.7)" opacity="1">
<path style="fill:#000000;fill-opacity:1" d="M13.65 -18.25Q13.65 -17.25 12.75 -16.35Q11.9 -15.45 10.8 -15.45Q9.2 -15.45 9.2 -17.05Q9.2 -18.05 10.1 -18.95Q11 -19.85 12 -19.85Q13.65 -19.85 13.65 -18.25M13.95 -8.1L13.65 -7.55L12.55 -6Q7.8 0.55 5.05 0.55Q3.7 0.55 2.8 -0.4Q1.9 -1.35 1.9 -2.8Q1.9 -4.35 3.65 -7.35L7.7 -14.1L9.1 -13.9Q9.75 -13.9 11.55 -14.1L5.85 -4.15Q4.75 -2.35 4.75 -1.4Q4.75 -0.8 5.35 -0.8Q7.25 -0.8 12.55 -8.3Q12.8 -8.8 13.25 -8.8Q13.95 -8.8 13.95 -8.1" />
</g>
<g id="PathID_54" transform="matrix(0.429688, 0, 0, 0.429688, 267.9, 256.7)" opacity="1">
</g>
<g id="PathID_55" transform="matrix(0.429688, 0, 0, 0.429688, 271.6, 256.7)" opacity="1">
<path style="fill:#000000;fill-opacity:1" d="M25.25 -8.15Q25.25 -7.45 21.55 -3.05Q18.45 0.55 16.55 0.55Q15.2 0.55 14.3 -0.45Q13.45 -1.45 13.45 -2.9Q13.45 -4.1 13.9 -5.1Q14.4 -6.15 16.25 -8.7Q18.25 -11.75 18.25 -12.4Q18.25 -12.95 17.65 -12.95Q14.4 -12.95 6.95 0.35L5.2 0.3L3.1 0.35L7 -6.45Q10.2 -11.55 10.2 -12.7Q10.2 -12.95 10.05 -12.95Q9.1 -12.95 5.6 -7.85Q5.25 -7.4 4.85 -7.3Q4.25 -7.3 4.15 -7.95Q4.2 -8.3 4.4 -8.5L4.7 -8.5Q8.7 -14.3 10.25 -14.3Q11.4 -14.3 12.1 -13.35Q12.85 -12.4 12.85 -11.2Q12.85 -9.5 11 -7.35Q12.95 -11.2 14.55 -12.75Q16.2 -14.3 17.75 -14.3Q19.1 -14.3 19.95 -13.2Q20.85 -12.15 20.85 -10.7Q20.85 -8.95 18.5 -5.4Q16.3 -2.1 16.3 -1.3Q16.3 -0.8 16.75 -0.8Q18.65 -0.8 23.85 -8.3Q24.1 -8.8 24.55 -8.8Q25.25 -8.8 25.25 -8.15" />
</g>
<g id="PathID_56" transform="matrix(0.429688, 0, 0, 0.429688, 271.6, 256.7)" opacity="1">
</g>
<g id="PathID_57" transform="matrix(0.429688, 0, 0, 0.429688, 280.2, 256.7)" opacity="1">
<path style="fill:#000000;fill-opacity:1" d="M16.1 -11.6Q16.35 -11.65 16.35 -12.15Q16.35 -12.3 16.25 -12.4L16.65 -14.1Q17.65 -13.9 18.05 -13.9Q18.7 -13.9 20.5 -14.1Q20.2 -13.1 17.7 -9.4L12.25 0.1Q14.6 -1.65 16.5 -3.3Q18.4 -5 20.8 -8.1Q21.3 -8.8 21.7 -8.8Q22.35 -8.65 22.35 -8.15Q22.35 -7.6 19.55 -4.45Q16.5 -1.1 11.85 1.4L10.7 3.55Q7.35 9.75 3.1 13.15Q-1 16.45 -4.1 16.45Q-5.35 16.45 -6.15 15.65Q-7 14.9 -7 13.75Q-7 8.45 4.6 3.15L7.6 1.7L11.65 -5.1Q9.9 -1.7 8.65 -0.55Q7.45 0.55 6.05 0.55Q4.5 0.55 3.5 -0.7Q2.5 -2 2.5 -3.8Q2.5 -8.3 8.25 -11.9Q12.05 -14.3 14.3 -14.3Q16.2 -14.3 16.25 -12.4L16.1 -11.6M15 -12.15Q15 -12.95 14.3 -12.95Q12.4 -12.95 8.9 -8.7Q5.4 -4.45 5.4 -1.9Q5.4 -0.8 6.25 -0.8Q7.45 -0.8 10.75 -4.95Q15 -10.35 15 -12.15M6.95 2.85L6.55 3.45Q6.1 3.9 5.2 4.35Q-5.65 9.7 -5.65 13.85Q-5.65 14.4 -5.25 14.75Q-4.85 15.1 -4.2 15.1Q-1.75 15.1 0.7 12.45Q3.05 9.95 6.55 3.45Q7.45 3.1 7.25 3L6.95 2.85" />
</g>
<g id="PathID_58" transform="matrix(0.429688, 0, 0, 0.429688, 280.2, 256.7)" opacity="1">
</g>
<g id="PathID_59" transform="matrix(0.429688, 0, 0, 0.429688, 291.45, 256.7)" opacity="1">
<path style="fill:#000000;fill-opacity:1" d="M16.25 -11.7Q16.45 -11.85 16.45 -12.3L16.4 -12.45L16.7 -14.1Q17.75 -13.9 18.25 -13.9Q18.9 -13.9 20.55 -14.1L15.7 -5.9Q13.95 -2.5 13.95 -1.45Q13.95 -0.8 14.35 -0.8Q15.1 -0.8 17.15 -2.95Q19.2 -5.1 21.45 -8.4Q21.7 -8.8 22.1 -8.8Q22.8 -8.8 22.8 -8.15Q22.8 -7.45 19.2 -3.25Q16.05 0.55 14.1 0.55Q12.75 0.55 11.9 -0.4Q11.1 -1.4 11.1 -2.9Q11.1 -4.35 11.85 -5.25Q10.35 -2.05 8.95 -0.75Q7.55 0.55 6.1 0.55Q4.55 0.55 3.55 -0.7Q2.55 -1.95 2.55 -3.85Q2.55 -8.85 9.9 -12.65Q12.45 -14.3 14.35 -14.3Q16.35 -14.3 16.4 -12.45L16.25 -11.7M15.05 -12.2Q15.05 -12.95 14.4 -12.95Q12.45 -12.95 8.9 -8.7Q5.4 -4.45 5.4 -1.85Q5.4 -0.8 6.25 -0.8Q7.7 -0.8 11.7 -6.2Q15.05 -10.7 15.05 -12.2" />
</g>
<g id="PathID_60" transform="matrix(0.429688, 0, 0, 0.429688, 291.45, 256.7)" opacity="1">
</g>
<g id="PathID_61" transform="matrix(0.429688, 0, 0, 0.429688, 299.05, 256.7)" opacity="1">
<path style="fill:#000000;fill-opacity:1" d="M25.25 -8.15Q25.25 -7.45 21.55 -3.05Q18.45 0.55 16.55 0.55Q15.2 0.55 14.3 -0.45Q13.45 -1.45 13.45 -2.9Q13.45 -4.1 13.9 -5.1Q14.4 -6.15 16.25 -8.7Q18.25 -11.75 18.25 -12.4Q18.25 -12.95 17.65 -12.95Q14.4 -12.95 6.95 0.35L5.2 0.3L3.1 0.35L7 -6.45Q10.2 -11.55 10.2 -12.7Q10.2 -12.95 10.05 -12.95Q9.1 -12.95 5.6 -7.85Q5.25 -7.4 4.85 -7.3Q4.25 -7.3 4.15 -7.95Q4.2 -8.3 4.4 -8.5L4.7 -8.5Q8.7 -14.3 10.25 -14.3Q11.4 -14.3 12.1 -13.35Q12.85 -12.4 12.85 -11.2Q12.85 -9.5 11 -7.35Q12.95 -11.2 14.55 -12.75Q16.2 -14.3 17.75 -14.3Q19.1 -14.3 19.95 -13.2Q20.85 -12.15 20.85 -10.7Q20.85 -8.95 18.5 -5.4Q16.3 -2.1 16.3 -1.3Q16.3 -0.8 16.75 -0.8Q18.65 -0.8 23.85 -8.3Q24.1 -8.8 24.55 -8.8Q25.25 -8.8 25.25 -8.15" />
</g>
<g id="PathID_62" transform="matrix(0.429688, 0, 0, 0.429688, 299.05, 256.7)" opacity="1">
</g>
<g id="PathID_63" transform="matrix(0.429688, 0, 0, 0.429688, 307.65, 256.7)" opacity="1">
<path style="fill:#000000;fill-opacity:1" d="M27.85 -25.8L16.15 -6.35Q13.85 -2.35 13.85 -1.4Q13.85 -0.8 14.3 -0.8Q16.25 -0.8 21.45 -8.35Q21.7 -8.8 22.1 -8.8Q22.8 -8.8 22.8 -8.1L22.5 -7.55L21.4 -6Q16.6 0.55 14.1 0.55Q12.75 0.55 11.9 -0.4Q11.1 -1.4 11.1 -2.95Q11.1 -4.4 11.95 -5.5Q8.45 0.55 6.1 0.55Q4.55 0.55 3.55 -0.7Q2.55 -1.95 2.55 -3.85Q2.55 -8.15 7.75 -11.55Q11.9 -14.3 14.3 -14.3Q16.4 -14.3 16.4 -12.3Q16.4 -11.5 15.95 -11.25L23.95 -25.9Q25.05 -25.7 25.75 -25.7L27.85 -25.8M15 -12.15Q15 -12.95 14.25 -12.95Q12.35 -12.95 8.85 -8.7Q5.4 -4.45 5.4 -1.9Q5.4 -0.8 6.2 -0.8Q7.9 -0.8 12.5 -7.4Q15 -10.95 15 -12.15" />
</g>
<g id="PathID_64" transform="matrix(0.429688, 0, 0, 0.429688, 307.65, 256.7)" opacity="1">
</g>
<g id="PathID_65" transform="matrix(0.429688, 0, 0, 0.429688, 319.15, 256.7)" opacity="1">
<path style="fill:#000000;fill-opacity:1" d="M14.6 -14.3L14.2 -12.95L11 -12.95L5.65 -3.8Q4.75 -2.25 4.75 -1.4Q4.75 -0.8 5.35 -0.8Q7.3 -0.8 12.45 -8.35Q12.75 -8.8 13.15 -8.8Q13.85 -8.8 13.85 -8.1L13.55 -7.55L12.45 -6Q7.7 0.55 5.05 0.55Q3.7 0.55 2.8 -0.4Q1.9 -1.4 1.9 -2.85Q1.9 -4.45 3.2 -6L7.3 -12.95L4.8 -12.95L5.3 -14.3L7.7 -14.3L10.65 -19.05Q11.65 -18.85 12.25 -18.85Q12.9 -18.85 14.25 -19.05L11.4 -14.3L14.6 -14.3" />
</g>
<g id="PathID_66" transform="matrix(0.429688, 0, 0, 0.429688, 319.15, 256.7)" opacity="1">
</g>
<g id="PathID_67" transform="matrix(0.429688, 0, 0, 0.429688, 322.8, 256.7)" opacity="1">
<path style="fill:#000000;fill-opacity:1" d="M10.9 -4.65L10.4 -5.05Q9.55 -4.05 9.55 -3.1Q8.3 -1.45 7.65 -0.95Q6.2 0.55 4.9 0.55Q3.6 0.55 2.75 -0.4Q1.9 -1.4 1.9 -2.85Q1.9 -4.4 3.6 -6.6L7.75 -14.1Q8.85 -13.9 9.25 -13.9L11.5 -14.1L5.55 -3.7Q4.75 -2.4 4.75 -1.4Q4.75 -0.8 5.1 -0.8Q7.3 -0.8 12.65 -9.75L15.25 -14.1Q16.3 -13.9 16.75 -13.9Q17.35 -13.9 19.05 -14.1L15 -6.9Q12.3 -2.5 12.3 -1.35Q12.3 -0.8 12.75 -0.8Q14.45 -0.8 18.7 -6.75L19.5 -7.85L19.85 -8.3Q20.1 -8.8 20.55 -8.8Q21.25 -8.8 21.25 -8.15Q21.25 -7.4 17.55 -3.05Q14.5 0.55 12.5 0.55Q11.2 0.55 10.3 -0.45Q9.45 -1.45 9.45 -2.9L9.55 -3.1Q10.2 -3.75 10.9 -4.65" />
</g>
<g id="PathID_68" transform="matrix(0.429688, 0, 0, 0.429688, 322.8, 256.7)" opacity="1">
</g>
<g id="PathID_69" transform="matrix(0.429688, 0, 0, 0.429688, 329.7, 256.7)" opacity="1">
<path style="fill:#000000;fill-opacity:1" d="M14.6 -14.3L14.2 -12.95L11 -12.95L5.65 -3.8Q4.75 -2.25 4.75 -1.4Q4.75 -0.8 5.35 -0.8Q7.3 -0.8 12.45 -8.35Q12.75 -8.8 13.15 -8.8Q13.85 -8.8 13.85 -8.1L13.55 -7.55L12.45 -6Q7.7 0.55 5.05 0.55Q3.7 0.55 2.8 -0.4Q1.9 -1.4 1.9 -2.85Q1.9 -4.45 3.2 -6L7.3 -12.95L4.8 -12.95L5.3 -14.3L7.7 -14.3L10.65 -19.05Q11.65 -18.85 12.25 -18.85Q12.9 -18.85 14.25 -19.05L11.4 -14.3L14.6 -14.3" />
</g>
<g id="PathID_70" transform="matrix(0.429688, 0, 0, 0.429688, 329.7, 256.7)" opacity="1">
</g>
<g id="PathID_71" transform="matrix(0.429688, 0, 0, 0.429688, 333.35, 256.7)" opacity="1">
<path style="fill:#000000;fill-opacity:1" d="M20.1 -8.2Q20.1 -7.6 18.5 -6Q16.2 -3.75 14.1 -3.75Q13.25 -3.75 12.95 -4Q9.85 0.55 6.7 0.55Q5 0.55 3.8 -0.8Q2.65 -2.15 2.65 -4.05Q2.65 -8.05 7.8 -11.7Q11.4 -14.3 13.8 -14.3Q16.5 -14.3 16.5 -11.55Q16.5 -8.55 13.5 -4.9Q13.6 -5 14.05 -5Q15 -5 16.35 -5.9Q17.75 -6.85 18.65 -8.3Q19.1 -8.8 19.45 -8.8Q20.1 -8.8 20.1 -8.2M15.1 -11.5Q15.1 -13 13.8 -13Q11.85 -13 8.75 -8.9Q5.7 -4.8 5.7 -2Q5.7 -0.85 6.75 -0.85Q9.15 -0.85 12.05 -4.65Q11.3 -5.3 11.3 -6.3Q11.3 -7.7 12.4 -9.1Q13.5 -10.55 14.65 -10.55Q15.45 -10.55 15.3 -10.05Q15.1 -10.55 15.1 -11.5" />
</g>
<g id="PathID_72" transform="matrix(0.429688, 0, 0, 0.429688, 333.35, 256.7)" opacity="1">
</g>
<g id="PathID_73" transform="matrix(0.429688, 0, 0, 0.429688, 339.75, 256.7)" opacity="1">
<path style="fill:#000000;fill-opacity:1" d="M19.5 -8.15Q19.5 -7.75 17.55 -5.85Q15.9 -3.8 14 -3.8Q11.65 -3.8 11.65 -6.45Q11.65 -7.2 11.9 -7.7Q11.3 -6.5 10.35 -5.2Q9.45 -3.95 6.9 0.35L5.05 0.3L3.1 0.35L7.15 -6.9Q10.15 -11.7 10.15 -12.75Q10.15 -12.95 10.05 -12.95Q9 -12.95 5.5 -7.8Q5.2 -7.3 4.6 -7.3Q4.1 -7.45 4.1 -8Q4.15 -8.3 4.35 -8.5L4.85 -9.25Q8.65 -14.3 10.25 -14.3Q12.8 -14.3 12.8 -11.25Q12.8 -9.25 10.75 -6.75Q11.15 -8.05 12.25 -8.95Q13.15 -11.1 14.6 -12.7Q16.1 -14.3 17.4 -14.3Q18.75 -14.3 18.75 -13.1Q18.75 -11.7 15.05 -9.35L13.45 -8.35L13.3 -8.25Q13.05 -7.3 13.05 -6.65Q13.05 -5.1 14 -5.1Q15.65 -5.1 17.75 -8Q18.45 -8.8 18.8 -8.8Q19.5 -8.8 19.5 -8.15" />
</g>
<g id="PathID_74" transform="matrix(0.429688, 0, 0, 0.429688, 339.75, 256.7)" opacity="1">
</g>
<g id="PathID_75" transform="matrix(0.429688, 0, 0, 0.429688, 345.85, 256.7)" opacity="1">
<path style="fill:#000000;fill-opacity:1" d="M13.65 -18.25Q13.65 -17.25 12.75 -16.35Q11.9 -15.45 10.8 -15.45Q9.2 -15.45 9.2 -17.05Q9.2 -18.05 10.1 -18.95Q11 -19.85 12 -19.85Q13.65 -19.85 13.65 -18.25M13.95 -8.1L13.65 -7.55L12.55 -6Q7.8 0.55 5.05 0.55Q3.7 0.55 2.8 -0.4Q1.9 -1.35 1.9 -2.8Q1.9 -4.35 3.65 -7.35L7.7 -14.1L9.1 -13.9Q9.75 -13.9 11.55 -14.1L5.85 -4.15Q4.75 -2.35 4.75 -1.4Q4.75 -0.8 5.35 -0.8Q7.25 -0.8 12.55 -8.3Q12.8 -8.8 13.25 -8.8Q13.95 -8.8 13.95 -8.1" />
</g>
<g id="PathID_76" transform="matrix(0.429688, 0, 0, 0.429688, 345.85, 256.7)" opacity="1">
</g>
<g id="PathID_77" transform="matrix(0.429688, 0, 0, 0.429688, 349.55, 256.7)" opacity="1">
<path style="fill:#000000;fill-opacity:1" d="M25.25 -8.15Q25.25 -7.45 21.55 -3.05Q18.45 0.55 16.55 0.55Q15.2 0.55 14.3 -0.45Q13.45 -1.45 13.45 -2.9Q13.45 -4.1 13.9 -5.1Q14.4 -6.15 16.25 -8.7Q18.25 -11.75 18.25 -12.4Q18.25 -12.95 17.65 -12.95Q14.4 -12.95 6.95 0.35L5.2 0.3L3.1 0.35L7 -6.45Q10.2 -11.55 10.2 -12.7Q10.2 -12.95 10.05 -12.95Q9.1 -12.95 5.6 -7.85Q5.25 -7.4 4.85 -7.3Q4.25 -7.3 4.15 -7.95Q4.2 -8.3 4.4 -8.5L4.7 -8.5Q8.7 -14.3 10.25 -14.3Q11.4 -14.3 12.1 -13.35Q12.85 -12.4 12.85 -11.2Q12.85 -9.5 11 -7.35Q12.95 -11.2 14.55 -12.75Q16.2 -14.3 17.75 -14.3Q19.1 -14.3 19.95 -13.2Q20.85 -12.15 20.85 -10.7Q20.85 -8.95 18.5 -5.4Q16.3 -2.1 16.3 -1.3Q16.3 -0.8 16.75 -0.8Q18.65 -0.8 23.85 -8.3Q24.1 -8.8 24.55 -8.8Q25.25 -8.8 25.25 -8.15" />
</g>
<g id="PathID_78" transform="matrix(0.429688, 0, 0, 0.429688, 349.55, 256.7)" opacity="1">
</g>
<g id="PathID_79" transform="matrix(0.429688, 0, 0, 0.429688, 184.4, 279.3)" opacity="1">
<path style="fill:#000000;fill-opacity:1" d="M26.85 -8.25Q26.85 -7.75 25.15 -6Q22.85 -3.6 21.05 -3.6Q19.65 -3.6 19.2 -4.8Q17.45 -1.95 15.95 -0.7Q14.5 0.55 12.9 0.55Q11.45 0.55 10.45 -0.4Q9.5 -1.4 9.5 -2.85Q9.5 -4 10.15 -4.8Q7.3 0.55 4.85 0.55Q3.6 0.55 2.75 -0.45Q1.9 -1.45 1.9 -2.85Q1.9 -4.35 3.35 -6.2L7.7 -14.1L9.35 -13.9L11.55 -14.1L5.85 -4.2Q4.65 -2.25 4.65 -1.4Q4.65 -0.8 5.1 -0.8Q5.95 -0.8 8.05 -3.1Q10.15 -5.45 12.3 -9.1L15.2 -14.1L17.15 -13.95Q17.95 -13.95 19.1 -14.1L13.85 -5.05Q12.25 -2.4 12.25 -1.5Q12.25 -0.8 12.95 -0.8Q15.15 -0.8 18.5 -5.65L18.4 -6.9Q18.4 -9.25 19.85 -11.75Q21.3 -14.3 22.85 -14.3Q24 -14.3 24 -13Q24 -10.8 19.95 -5.5Q20.35 -4.9 21.05 -4.9Q22.65 -4.9 25.15 -8Q25.8 -8.8 26.2 -8.8Q26.7 -8.8 26.85 -8.25" />
</g>
<g id="PathID_80" transform="matrix(0.429688, 0, 0, 0.429688, 184.4, 279.3)" opacity="1">
</g>
<g id="PathID_81" transform="matrix(0.429688, 0, 0, 0.429688, 193.7, 279.3)" opacity="1">
<path style="fill:#000000;fill-opacity:1" d="M13.65 -18.25Q13.65 -17.25 12.75 -16.35Q11.9 -15.45 10.8 -15.45Q9.2 -15.45 9.2 -17.05Q9.2 -18.05 10.1 -18.95Q11 -19.85 12 -19.85Q13.65 -19.85 13.65 -18.25M13.95 -8.1L13.65 -7.55L12.55 -6Q7.8 0.55 5.05 0.55Q3.7 0.55 2.8 -0.4Q1.9 -1.35 1.9 -2.8Q1.9 -4.35 3.65 -7.35L7.7 -14.1L9.1 -13.9Q9.75 -13.9 11.55 -14.1L5.85 -4.15Q4.75 -2.35 4.75 -1.4Q4.75 -0.8 5.35 -0.8Q7.25 -0.8 12.55 -8.3Q12.8 -8.8 13.25 -8.8Q13.95 -8.8 13.95 -8.1" />
</g>
<g id="PathID_82" transform="matrix(0.429688, 0, 0, 0.429688, 193.7, 279.3)" opacity="1">
</g>
<g id="PathID_83" transform="matrix(0.429688, 0, 0, 0.429688, 197.4, 279.3)" opacity="1">
<path style="fill:#000000;fill-opacity:1" d="M14.6 -14.3L14.2 -12.95L11 -12.95L5.65 -3.8Q4.75 -2.25 4.75 -1.4Q4.75 -0.8 5.35 -0.8Q7.3 -0.8 12.45 -8.35Q12.75 -8.8 13.15 -8.8Q13.85 -8.8 13.85 -8.1L13.55 -7.55L12.45 -6Q7.7 0.55 5.05 0.55Q3.7 0.55 2.8 -0.4Q1.9 -1.4 1.9 -2.85Q1.9 -4.45 3.2 -6L7.3 -12.95L4.8 -12.95L5.3 -14.3L7.7 -14.3L10.65 -19.05Q11.65 -18.85 12.25 -18.85Q12.9 -18.85 14.25 -19.05L11.4 -14.3L14.6 -14.3" />
</g>
<g id="PathID_84" transform="matrix(0.429688, 0, 0, 0.429688, 197.4, 279.3)" opacity="1">
</g>
<g id="PathID_85" transform="matrix(0.429688, 0, 0, 0.429688, 201.05, 279.3)" opacity="1">
<path style="fill:#000000;fill-opacity:1" d="M21.25 -8.2Q21.25 -7.8 20.85 -7.4L19.85 -6Q15.1 0.55 12.55 0.55Q11.15 0.55 10.25 -0.4Q9.4 -1.4 9.4 -2.9Q9.4 -4.75 11.3 -7.65Q14.15 -11.8 14.15 -12.45Q14.15 -12.95 13.6 -12.95Q12.4 -12.95 10 -10.2Q7.6 -7.5 3.15 0.45L1.6 0.35L-0.3 0.45L3.4 -6.95L5.6 -10.95Q6.35 -12.1 10.55 -19.35L14.45 -25.95L15.95 -25.8Q16.9 -25.8 18.4 -26.05Q15.75 -21.15 10.7 -13L7 -7.45Q10.8 -14.3 13.75 -14.3Q15.05 -14.3 15.95 -13.2Q16.85 -12.1 16.85 -10.65Q16.85 -8.85 14.6 -5.5Q12.3 -2.1 12.3 -1.35Q12.3 -0.8 12.8 -0.8Q14.45 -0.8 18.7 -6.75L19.5 -7.85L19.85 -8.3Q20.1 -8.8 20.6 -8.8Q21.25 -8.8 21.25 -8.2" />
</g>
<g id="PathID_86" transform="matrix(0.429688, 0, 0, 0.429688, 201.05, 279.3)" opacity="1">
</g>
<g id="PathID_87" transform="matrix(0.429688, 0, 0, 0.429688, 211.85, 279.3)" opacity="1">
<path style="fill:#000000;fill-opacity:1" d="M48.2 -34.45Q48.2 -33.8 45.9 -32.7Q43.85 -31.8 41.5 -31.15Q37.4 -27.8 34.5 -23.7Q31.65 -19.6 28.2 -12.75L28.25 -12.75Q32.2 -12.75 34.85 -15.65Q36.2 -17.05 36.7 -19.4Q36.9 -20.2 37.5 -20.2Q38.25 -20.2 38.25 -19.45Q38.25 -16.5 35.05 -13.9Q31.9 -11.35 28.3 -11.35L27.8 -11.35L26.45 -8.65Q23.4 -2.35 21.25 0.4Q19.1 3.15 15.7 5.35Q10.25 8.75 4.5 8.75Q1.15 8.75 -1.05 7.2Q-3.3 5.65 -3.3 3.15Q-3.3 1.75 -2.45 0.7Q-1.65 -0.3 -0.45 -0.3Q1.75 -0.3 1.75 1.85Q1.75 4.3 -0.6 4.3Q-1.05 4.3 -1.3 4Q-2.35 3.75 -2.4 2.2L-2.25 2.55Q-1.8 2.55 -1.8 3.2Q-1.8 3.7 -1.3 4Q-1.3 5.2 -0.05 6.05Q1.7 7.25 4.45 7.25Q10.5 7.25 14.9 2.3Q16.65 0.35 18.45 -2.7L23.65 -11.9L24 -12.05Q21.7 -12.7 20.15 -14.75Q18.6 -16.8 18.6 -19.45Q18.6 -24.1 22.4 -27.2Q24.65 -29 26.9 -29.7Q29.15 -30.4 34.9 -31.15Q37.35 -31.45 40.75 -32.3Q45.4 -35.25 47.3 -35.25Q48.2 -35.25 48.2 -34.45M40 -30.9Q39.05 -30.55 36.1 -29.85Q31.55 -28.85 29.2 -27.85Q26.85 -26.9 24.95 -25.25Q20.95 -21.8 20.95 -18.05Q20.95 -14.55 24.45 -13.25Q31.65 -26.4 40 -30.9" />
</g>
<g id="PathID_88" transform="matrix(0.429688, 0, 0, 0.429688, 211.85, 279.3)" opacity="1">
</g>
<g id="PathID_89" transform="matrix(0.429688, 0, 0, 0.429688, 224.25, 279.3)" opacity="1">
<path style="fill:#000000;fill-opacity:1" d="M10.9 -4.65L10.4 -5.05Q9.55 -4.05 9.55 -3.1Q8.3 -1.45 7.65 -0.95Q6.2 0.55 4.9 0.55Q3.6 0.55 2.75 -0.4Q1.9 -1.4 1.9 -2.85Q1.9 -4.4 3.6 -6.6L7.75 -14.1Q8.85 -13.9 9.25 -13.9L11.5 -14.1L5.55 -3.7Q4.75 -2.4 4.75 -1.4Q4.75 -0.8 5.1 -0.8Q7.3 -0.8 12.65 -9.75L15.25 -14.1Q16.3 -13.9 16.75 -13.9Q17.35 -13.9 19.05 -14.1L15 -6.9Q12.3 -2.5 12.3 -1.35Q12.3 -0.8 12.75 -0.8Q14.45 -0.8 18.7 -6.75L19.5 -7.85L19.85 -8.3Q20.1 -8.8 20.55 -8.8Q21.25 -8.8 21.25 -8.15Q21.25 -7.4 17.55 -3.05Q14.5 0.55 12.5 0.55Q11.2 0.55 10.3 -0.45Q9.45 -1.45 9.45 -2.9L9.55 -3.1Q10.2 -3.75 10.9 -4.65" />
</g>
<g id="PathID_90" transform="matrix(0.429688, 0, 0, 0.429688, 224.25, 279.3)" opacity="1">
</g>
<g id="PathID_91" transform="matrix(0.429688, 0, 0, 0.429688, 231.15, 279.3)" opacity="1">
<path style="fill:#000000;fill-opacity:1" d="M18.45 -26L6.4 -5.25Q4.75 -2.25 4.75 -1.4Q4.75 -0.8 5.1 -0.8Q6.9 -0.8 12.2 -8.3Q12.45 -8.8 13 -8.8Q13.6 -8.65 13.6 -8.15Q13.6 -7.8 13.2 -7.4L12.2 -6Q7.4 0.55 4.9 0.55Q3.65 0.55 2.85 -0.4Q2.05 -1.35 2.05 -2.75Q2.05 -4.2 2.65 -5.5Q3.3 -6.85 6.95 -12.9Q11.35 -20.2 14.65 -25.95Q15.65 -25.75 16.15 -25.75Q17 -25.75 18.45 -26" />
</g>
<g id="PathID_92" transform="matrix(0.429688, 0, 0, 0.429688, 231.15, 279.3)" opacity="1">
</g>
<g id="PathID_93" transform="matrix(0.429688, 0, 0, 0.429688, 238.55, 279.3)" opacity="1">
<path style="fill:#000000;fill-opacity:1" d="M7.3 -4.65Q7.3 -5.45 7.1 -5.45L6.7 -5.45Q6.65 -4 7.8 -3.8Q7.8 -2.5 9.1 -1.65Q10.9 -0.45 13.75 -0.45Q18.95 -0.45 23.15 -4.25Q25 -5.95 26.4 -7.8Q27.8 -9.65 32.75 -17.3Q35.2 -20.95 38.65 -24.75Q42.1 -28.6 44.25 -29.85Q40.7 -32.6 33.5 -32.6Q23.4 -32.6 15.9 -25.25Q9.8 -19.3 9.8 -14.05Q9.8 -11.5 11.4 -10.05Q13 -8.6 15.8 -8.6Q20.55 -8.6 25.65 -13.15Q30.8 -17.75 30.8 -22Q30.8 -25.05 27.6 -25.05Q24.2 -25.05 20.15 -21.1Q16.15 -17.2 16.15 -13.85Q16.15 -13.15 16.55 -12.65Q17 -12.2 17.6 -12.2Q18.55 -12.05 18.55 -11.5Q18.55 -10.8 17.5 -10.8Q16.05 -10.8 15.1 -12Q14.2 -13.25 14.2 -14.95Q14.2 -19 18.55 -22.75Q22.9 -26.5 27.5 -26.5Q32.3 -26.5 32.3 -22.1Q32.3 -17.1 26.75 -12.1Q21.2 -7.15 15.75 -7.15Q12.1 -7.15 9.9 -9.3Q7.75 -11.5 7.75 -15.15Q7.75 -22.35 15.75 -28.2Q23.75 -34.05 33.4 -34.05Q40.7 -34.05 45.5 -30.85Q49.85 -33.65 54.2 -33.65Q57.7 -33.65 59.85 -31.5Q62.05 -29.4 62.05 -26Q62.05 -24.65 61.6 -22.9Q61.2 -21.2 60.45 -21.2Q59.7 -21.2 59.7 -21.9L59.8 -22.3Q60.4 -23.95 60.4 -25.85Q60.4 -28.7 58.7 -30.45Q57.05 -32.2 54.25 -32.2Q50.35 -32.2 46.45 -29.95Q49.9 -27.7 49.9 -24.05Q49.9 -18.15 42.45 -17.35Q48.6 -15.75 48.6 -9.75Q48.6 -5.3 44.8 -2Q41.05 1.3 36 1.3Q33.5 1.3 32 0Q30.5 -1.3 30.5 -3.6Q30.5 -6.95 33.5 -10.15Q36.5 -13.4 39.65 -13.4Q41.5 -13.4 42.7 -12.2Q43.9 -11.05 43.9 -9.25Q43.9 -8.2 43.2 -6.55Q42.5 -4.95 41.75 -4.95Q41 -4.95 41 -5.65Q41 -5.9 41.15 -6.2Q42.4 -8 42.4 -9.3Q42.4 -10.5 41.6 -11.2Q40.85 -11.95 39.6 -11.95Q37.1 -11.95 34.6 -9.2Q32.15 -6.45 32.15 -3.55Q32.15 -2.1 33.05 -1.2Q34 -0.3 35.4 -0.3Q38.9 -0.3 41.9 -3.75Q44.9 -7.25 44.9 -11.45Q44.9 -15.2 41.4 -16.95L40.1 -16.75L38.9 -16.7Q36.8 -16.7 36.85 -17.65L37.1 -18.05Q37.35 -18.7 38.55 -18.7Q39.75 -18.7 41.45 -18.3Q43.7 -19 45.1 -20.8Q46.5 -22.65 46.5 -25.05Q46.5 -27.25 45.05 -28.95Q40.95 -25.65 37.1 -18.05Q36.55 -18.15 36.55 -17.8Q36.55 -17.7 36.85 -17.65Q36.1 -16.55 35.5 -15.25Q32.55 -9.15 30.05 -6.35Q27.65 -3.7 23.2 -1.45Q18 1.05 13.85 1.05Q10.4 1.05 8.05 -0.55Q5.7 -2.2 5.7 -4.7Q5.7 -6.15 6.55 -7.2Q7.45 -8.3 8.75 -8.3Q10.8 -8.3 10.8 -6.1Q10.8 -5.1 10.1 -4.35Q9.45 -3.6 8.45 -3.6Q8.05 -3.6 7.8 -3.8Q7.3 -4.15 7.3 -4.65" />
</g>
<g id="PathID_94" transform="matrix(0.429688, 0, 0, 0.429688, 238.55, 279.3)" opacity="1">
</g>
<g id="PathID_95" transform="matrix(0.429688, 0, 0, 0.429688, 259, 279.3)" opacity="1">
<path style="fill:#000000;fill-opacity:1" d="M19.5 -8.15Q19.5 -7.75 17.55 -5.85Q15.9 -3.8 14 -3.8Q11.65 -3.8 11.65 -6.45Q11.65 -7.2 11.9 -7.7Q11.3 -6.5 10.35 -5.2Q9.45 -3.95 6.9 0.35L5.05 0.3L3.1 0.35L7.15 -6.9Q10.15 -11.7 10.15 -12.75Q10.15 -12.95 10.05 -12.95Q9 -12.95 5.5 -7.8Q5.2 -7.3 4.6 -7.3Q4.1 -7.45 4.1 -8Q4.15 -8.3 4.35 -8.5L4.85 -9.25Q8.65 -14.3 10.25 -14.3Q12.8 -14.3 12.8 -11.25Q12.8 -9.25 10.75 -6.75Q11.15 -8.05 12.25 -8.95Q13.15 -11.1 14.6 -12.7Q16.1 -14.3 17.4 -14.3Q18.75 -14.3 18.75 -13.1Q18.75 -11.7 15.05 -9.35L13.45 -8.35L13.3 -8.25Q13.05 -7.3 13.05 -6.65Q13.05 -5.1 14 -5.1Q15.65 -5.1 17.75 -8Q18.45 -8.8 18.8 -8.8Q19.5 -8.8 19.5 -8.15" />
</g>
<g id="PathID_96" transform="matrix(0.429688, 0, 0, 0.429688, 259, 279.3)" opacity="1">
</g>
<g id="PathID_97" transform="matrix(0.429688, 0, 0, 0.429688, 265.1, 279.3)" opacity="1">
<path style="fill:#000000;fill-opacity:1" d="M17.9 -8.15Q17.9 -7.9 17.35 -7.2L16.4 -6.05Q11.05 0.55 7.15 0.55Q5.25 0.55 3.95 -0.8Q2.65 -2.2 2.65 -4.25Q2.65 -8.95 9.05 -12.45Q12.4 -14.3 14.55 -14.3Q15.65 -14.3 16.45 -13.6Q17.25 -12.95 17.25 -11.95Q17.25 -9.9 14.75 -8.55Q12.3 -7.25 7.05 -6.2Q5.6 -4 5.6 -2.45Q5.6 -0.85 7.3 -0.85Q10.9 -0.85 16.35 -8.2Q16.8 -8.8 17.3 -8.8Q17.9 -8.65 17.9 -8.15M14.85 -12.7Q14.85 -13 14.45 -13Q13.4 -13 11.35 -11.25Q9.35 -9.55 7.45 -7.5Q10.2 -8.35 12.5 -9.9Q14.85 -11.5 14.85 -12.7" />
</g>
<g id="PathID_98" transform="matrix(0.429688, 0, 0, 0.429688, 265.1, 279.3)" opacity="1">
</g>
<g id="PathID_99" transform="matrix(0.429688, 0, 0, 0.429688, 270.5, 279.3)" opacity="1">
<path style="fill:#000000;fill-opacity:1" d="M16.45 -10.4L16.25 -10.7L15.2 -9.95Q14.5 -9.45 13.75 -9.45Q12.75 -9.45 11.45 -10.5Q10.35 -11.45 9.75 -11.45Q8.5 -11.45 5.5 -7.75Q5.15 -7.35 4.7 -7.35Q4.15 -7.45 4.15 -7.95Q4.15 -8.55 6.55 -11.1Q9.45 -14.2 11.55 -14.2Q12.45 -14.2 14.95 -12.55Q15.85 -12.05 16.35 -12.05L16.8 -12.1L16.95 -12.35L17.85 -13.4Q18.55 -14.35 19.35 -14.35Q20.3 -14.35 20.3 -13.5Q20.3 -12.4 17.8 -11Q15.3 -8.85 9.5 -4.5Q8.65 -3.9 7.5 -3.75L7.6 -3.75Q9.05 -3.85 10.1 -2.8Q11.15 -1.8 11.3 -0.7L14.4 -3.85Q16.85 -6.3 18.05 -8.15Q18.5 -8.8 18.95 -8.8Q19.45 -8.8 19.6 -8.25Q19.6 -7.55 16.8 -4.4Q14 -1.3 11.55 0.45L11.55 0.85Q11.55 3.7 9.5 6.9Q7.5 10.1 4.55 12.1Q-1.8 16.25 -5.7 16.25Q-9.05 16.25 -9.05 13.45Q-9.05 10.5 -4.95 7.4Q-2.85 5.8 5.7 2.05Q7.35 1.35 8.6 0.6Q8.95 -0.3 8.95 -1.15Q8.95 -2.5 7.45 -2.5L6.85 -2.45L6.65 -2.25L5.75 -1.4Q3.3 0.9 2.4 0.9Q1.3 0.9 1.3 -0.15Q1.3 -2.1 6.1 -3.55Q11.75 -7.85 15.2 -9.95Q15.85 -10 16.45 -10.4M8.35 1.85Q8.5 2.1 1.6 5.15Q-2.55 7.25 -5.1 9.5Q-7.7 11.8 -7.7 13.55Q-7.7 14.95 -5.75 14.95Q-2.45 14.95 2 10.65Q6.45 6.4 8.35 1.85" />
</g>
<g id="PathID_100" transform="matrix(0.429688, 0, 0, 0.429688, 270.5, 279.3)" opacity="1">
</g>
<g id="PathID_101" transform="matrix(0.429688, 0, 0, 0.429688, 276.65, 279.3)" opacity="1">
<path style="fill:#000000;fill-opacity:1" d="M20.1 -8.2Q20.1 -7.6 18.5 -6Q16.2 -3.75 14.1 -3.75Q13.25 -3.75 12.95 -4Q9.85 0.55 6.7 0.55Q5 0.55 3.8 -0.8Q2.65 -2.15 2.65 -4.05Q2.65 -8.05 7.8 -11.7Q11.4 -14.3 13.8 -14.3Q16.5 -14.3 16.5 -11.55Q16.5 -8.55 13.5 -4.9Q13.6 -5 14.05 -5Q15 -5 16.35 -5.9Q17.75 -6.85 18.65 -8.3Q19.1 -8.8 19.45 -8.8Q20.1 -8.8 20.1 -8.2M15.1 -11.5Q15.1 -13 13.8 -13Q11.85 -13 8.75 -8.9Q5.7 -4.8 5.7 -2Q5.7 -0.85 6.75 -0.85Q9.15 -0.85 12.05 -4.65Q11.3 -5.3 11.3 -6.3Q11.3 -7.7 12.4 -9.1Q13.5 -10.55 14.65 -10.55Q15.45 -10.55 15.3 -10.05Q15.1 -10.55 15.1 -11.5" />
</g>
<g id="PathID_102" transform="matrix(0.429688, 0, 0, 0.429688, 276.65, 279.3)" opacity="1">
</g>
<g id="PathID_103" transform="matrix(0.429688, 0, 0, 0.429688, 283.05, 279.3)" opacity="1">
<path style="fill:#000000;fill-opacity:1" d="M19.25 -8.2Q19.25 -7.7 17.55 -5.95Q15.3 -3.6 13.45 -3.6Q12.05 -3.6 11.6 -4.75Q9.9 -1.9 8.4 -0.65Q6.95 0.55 5.35 0.55Q3.85 0.55 2.85 -0.45Q1.9 -1.45 1.9 -2.9Q1.9 -4.45 3.6 -7.35L7.65 -14.1L9.55 -13.95Q10.4 -13.95 11.55 -14.1L6.3 -5.05Q4.7 -2.4 4.7 -1.45Q4.7 -0.8 5.4 -0.8Q6.45 -0.8 7.6 -1.8Q8.8 -2.85 11 -5.65Q10.8 -6.2 10.8 -6.85Q10.8 -9.2 12.25 -11.75Q13.75 -14.3 15.3 -14.3Q16.5 -14.3 16.5 -13.05Q16.5 -11.1 12.4 -5.45Q12.7 -4.9 13.45 -4.9Q15.05 -4.9 17.55 -8Q18.2 -8.8 18.6 -8.8Q19.25 -8.8 19.25 -8.2" />
</g>
<g id="PathID_104" transform="matrix(0.429688, 0, 0, 0.429688, 283.05, 279.3)" opacity="1">
</g>
<g id="PathID_105" transform="matrix(0.429688, 0, 0, 0.429688, 289.05, 279.3)" opacity="1">
<path style="fill:#000000;fill-opacity:1" d="M21 -8.15Q21 -7.6 17.45 -4.3Q15.1 -1.15 10.35 1.5L9.2 3.55Q5.6 9.95 1.65 13.15Q-2.5 16.45 -5.6 16.45Q-6.85 16.45 -7.65 15.65Q-8.45 14.9 -8.45 13.75Q-8.45 8.55 3.2 3.1L6 1.8L6.15 1.7L10.35 -5.1Q8.7 -1.75 7.45 -0.6Q6.25 0.55 4.85 0.55Q3.6 0.55 2.7 -0.45Q1.85 -1.45 1.85 -2.8Q1.85 -4.35 3.6 -6.65L7.65 -14.05L9.15 -13.95L11.5 -14.1L6.55 -5.5Q4.6 -2.3 4.6 -1.4Q4.6 -0.8 5.05 -0.8Q7.4 -0.8 12.75 -9.9L15.15 -14.05L16.8 -13.95L19 -14.1Q15.8 -8.45 10.75 0.05Q12.85 -1.4 14.9 -3.15Q16.95 -4.95 19.45 -8.15Q19.95 -8.8 20.3 -8.8Q21 -8.8 21 -8.15M5.55 2.75L5.1 3.4Q4.7 3.9 3.75 4.35Q-7.05 9.7 -7.05 13.85Q-7.05 15.15 -5.55 15.15Q-3.2 15.15 -0.7 12.45Q1.65 9.9 5.1 3.4Q6 3.05 5.8 2.95L5.55 2.75" />
</g>
<g id="PathID_106" transform="matrix(0.429688, 0, 0, 0.429688, 289.05, 279.3)" opacity="1">
</g>
<g id="PathID_107" transform="matrix(0.429688, 0, 0, 0.429688, 295.85, 279.3)" opacity="1">
<path style="fill:#000000;fill-opacity:1" d="M17.7 -8.15Q17.7 -7.65 14.1 -3.7Q10.2 0.55 7.3 0.55Q5.35 0.55 4 -0.9Q2.65 -2.35 2.65 -4.35Q2.65 -6.6 4.35 -8.9Q6.1 -11.2 9.05 -12.85Q11.55 -14.3 13.15 -14.3Q15.55 -14.3 15.55 -11.65Q15.55 -9.8 14.25 -7.95Q13 -6.1 11.6 -6.1Q10 -6.1 10 -7.7Q10 -9.3 12.5 -10.5Q14 -11.25 14 -12.3Q14 -12.95 13.25 -12.95Q11.5 -12.95 8.65 -9.05Q5.85 -5.2 5.85 -2.6Q5.85 -0.8 7.45 -0.8Q10.55 -0.8 16.15 -8.15Q16.65 -8.8 17.1 -8.8Q17.7 -8.65 17.7 -8.15" />
</g>
<g id="PathID_108" transform="matrix(0.429688, 0, 0, 0.429688, 295.85, 279.3)" opacity="1">
</g>
<g id="PathID_109" transform="matrix(0.429688, 0, 0, 0.429688, 301.15, 279.3)" opacity="1">
<path style="fill:#000000;fill-opacity:1" d="M21.25 -8.2Q21.25 -7.8 20.85 -7.4L19.85 -6Q15.1 0.55 12.55 0.55Q11.15 0.55 10.25 -0.4Q9.4 -1.4 9.4 -2.9Q9.4 -4.75 11.3 -7.65Q14.15 -11.8 14.15 -12.45Q14.15 -12.95 13.6 -12.95Q12.4 -12.95 10 -10.2Q7.6 -7.5 3.15 0.45L1.6 0.35L-0.3 0.45L3.4 -6.95L5.6 -10.95Q6.35 -12.1 10.55 -19.35L14.45 -25.95L15.95 -25.8Q16.9 -25.8 18.4 -26.05Q15.75 -21.15 10.7 -13L7 -7.45Q10.8 -14.3 13.75 -14.3Q15.05 -14.3 15.95 -13.2Q16.85 -12.1 16.85 -10.65Q16.85 -8.85 14.6 -5.5Q12.3 -2.1 12.3 -1.35Q12.3 -0.8 12.8 -0.8Q14.45 -0.8 18.7 -6.75L19.5 -7.85L19.85 -8.3Q20.1 -8.8 20.6 -8.8Q21.25 -8.8 21.25 -8.2" />
</g>
<g id="PathID_110" transform="matrix(0.429688, 0, 0, 0.429688, 301.15, 279.3)" opacity="1">
</g>
<g id="PathID_111" transform="matrix(-0.0184257, 0.275167, 0.23447, -0.00581384, 314.15, 261.45)" opacity="1">
<path style="fill:#58230D;fill-opacity:1" d="M91.35 23.8Q90.1 25.05 87.55 26.05Q86.15 26.6 82.6 29.05Q79.55 31.2 77.2 31.75Q74.05 34.45 72.9 35.9Q72.8 36.25 73.05 36.4Q73.55 36.65 73.65 36.95L71.85 39.75Q70.8 41.5 70.55 42.7Q69.55 43.2 68.85 44.95L67.65 47.85Q68.15 48.9 68.55 51.8Q68.85 54.2 69.7 55.3L70.55 56.1L71.1 57.5L72.2 58.55Q73.05 56.95 73.65 54.05Q75.6 52.1 78.85 51.25Q82.05 50.3 83 49.25Q84.1 49.1 86.8 47.85Q89.05 47.3 89.75 50.75L88.55 52.1L89.8 53.75Q89.25 54.7 85.65 56.55Q82.3 58.25 81.8 59.9L78.55 62.45Q76.5 64 75.15 64.4Q75.35 65 74.4 65.8Q73.55 66.65 73.75 67.35Q74.05 67.65 76.2 68.45Q77.55 68.95 77.2 70.4L75.05 70.15Q74.1 70.15 73.8 71.5L75.65 73.25Q76 74.25 75.25 74.65Q76.8 76.3 76.8 77.85L76.2 78.1L75.6 78.1L75.35 79.25Q75.15 79.95 74.6 79.8L74.65 81.15L75.05 82.6L75.75 82.75L76.6 82.15L76.5 81.35Q76.5 80.85 77.15 80.8L76.6 79.8Q76.2 79.45 76.3 79.05L80.1 81.55L79.75 81.85L80.1 82.35Q80.15 82.7 81.15 83.1Q82.15 83.45 82.6 84.3L84.3 85Q85.3 85.55 85.95 86.8Q85.6 88.25 84.4 88.4Q80.85 86.3 78.75 85.65Q75.5 84.65 72.4 85.55Q72.7 86 73.75 86Q74.4 86.3 74.75 87.05Q74.6 87.5 74.05 87.35L73.25 87Q73.95 87.95 75.65 88.4L75.35 89.3L75.5 90.15L72.4 89.8L69.25 89.5Q69.55 89.9 70.25 90.15L71.1 90.65Q71.5 91.15 71.15 91.75Q69.2 92.05 66.85 91.2Q64 90.15 62.65 89.5Q62.5 89.75 62.5 91.75L61.35 92.25L60.5 92.45L60.2 93.4Q60.05 94 59.5 94.25Q59.9 94.65 59.75 94.85L61.35 96.75L61.35 96.65L62.2 96.35L63.05 95.85Q66 96.65 68.55 99.8Q71.15 103.25 69.95 106.4Q71.1 106.2 72.35 107.45L74.35 110.1Q76 108.6 77.85 108.75L81 109.5Q82.6 111.6 83.35 114.3Q84.05 117.2 83.35 119.15L84.85 119.8Q85.25 119.45 86.25 119.35L88.1 118.8L92.4 120.05Q95.25 120.7 96.55 122.3Q97.85 122.6 99.45 124.3Q101.1 125.85 102.35 127.9Q102.7 128.7 103.9 129.65Q105 131.35 105.65 133.75Q106.2 136.2 106 138.25L104.6 140Q104.05 140.5 103.25 142.1L102.25 143.7L100.15 144.2Q98.55 144.3 98.2 145Q94.3 144.65 89.2 140L88.1 138.15Q87.5 137.05 87.55 136.45L85.95 135L83.4 127.95L82.75 124.5Q82.5 122.6 81.1 121.6Q80.25 122 78.55 121.6L75.75 121Q73.25 118.3 73.25 113.05L71.65 110.85L69.9 109.1L69.7 108.25L69.55 107.45Q68 108.55 66.5 108.75Q64.1 107.6 62.05 103.65Q59.9 99.4 60.9 97.2L61 97.2L59.25 95L59.25 95.1L56 95.35L52.85 96.65Q53.5 98.2 53.05 99.85Q52.55 99.8 52.15 100.15L50.8 99.1L49.45 97.75L49.75 99.6Q50.05 100.65 49.85 101.15L48.15 101.7L47.5 101.05Q46.95 100.7 46.9 100.1L44.35 99.8Q43 99.6 42.15 98.4L41.25 98.8Q40.45 98.95 40.1 99.4Q39.55 100.45 39.35 103.05Q39.25 105.6 38.65 106.85Q39.9 111.9 39.2 115.35L38.5 116.55L38.55 119L38.75 121.35Q38.75 122.6 37.85 124.7L37.95 127.1L37.7 129.1L35.95 128.5Q36.25 127.8 35.9 126.35Q35.6 125 35.75 124.35L35.45 124.65L35 124.95L34.35 124.5Q33.2 120.35 33.35 113.65Q33.5 106.55 32.75 103.05L29.35 102.95Q28.55 103.95 28.85 106.3Q28.35 106.85 28.3 107.6Q28 108.55 28.65 108.95L28.35 110.5Q28.2 111.5 28.8 112.05Q28 112.7 28.65 116.35Q29.1 119.75 27.85 120Q27 120.05 26.1 118.75Q25.4 117.4 25.35 116L25.75 115.2Q25.4 113.6 25.4 110.5L25.1 107.1Q24.9 107.25 24.7 106.9Q24.4 106.55 24.75 106.55L25.1 106.85L24.9 106.3Q25.1 106 25.4 106.4Q26.95 101.85 27.1 99.25Q26.55 98.4 25.45 97.55L23.85 96.2Q22.15 96.55 20.45 98.75Q18.9 100.65 17.3 100.65L16.6 101.7Q15.8 102.55 15.7 103.05Q13.5 102.4 14.4 100.1L15.8 96.35Q15.7 96.15 15.25 96.35L14.65 96.55Q12.85 94.85 14.35 93.05L16.6 90.15L15.1 86.5Q14.35 84.1 14.4 82.7Q12.8 81.5 12.1 79.15Q11.6 78 11.25 75.05Q9.55 74.35 10.35 72.85Q11.1 71.35 12.4 72.85Q12.85 71 15.05 71Q13.5 68.45 13.85 67.15Q12.85 66.3 12.15 64.1Q12.7 64 12.4 63.25L11.95 62.15Q12.7 61.75 12.25 60.5Q11.6 59.2 11.95 58.8Q11.6 58.5 11.1 58.8L9.9 58.9L9.15 60.8L6.3 59.9Q4.7 58.95 4.45 56.95Q4.35 56.7 3.5 56.45Q3.05 56.1 2.75 55.3Q2.8 54.1 4.75 54.35L2.1 49.6Q0.5 46.75 0.55 44.7L0.9 43.85Q0.95 43.2 1.2 43Q0 41.8 0 40.4Q0.05 39 0.95 38.2L2.3 38.5Q3.05 38.65 3.45 39.35Q5.45 38.65 7.4 39.6Q9.35 40.8 10.45 43.2L11.1 45.35Q11.45 46.65 12.15 47.2L13.7 47.5L15.35 49.75L15.8 49.6Q17.6 47.85 17.65 43.5Q17.9 38.7 18.85 37.1Q19.7 37 21.55 36.1L22.5 37.3L23.5 38.7L24 40.4L24.7 40.95L25.35 41.5L25.7 43L25.75 44.5L26.4 43.65Q26.75 43.35 27.25 43.4Q27.65 43 27.65 42Q28.5 41.5 29 40.45L29.2 38.15Q29.35 36.65 29.95 35.9Q30.2 35.1 29.95 34.15L29.9 32.45Q29.95 31.2 31.75 28.65Q33.2 26.4 33.2 24.7L33.85 23.55Q36.85 12.25 38.55 8.3Q39.35 7.6 39.9 6.3Q40.45 4.75 40.45 3.35Q41.4 1.9 43.7 0Q45.75 1.1 46.3 3.9L46.95 9.4L47.5 11.2L47.9 12.85L47.6 15.7L47.6 17.6Q47.6 18.6 47.2 19L47.6 19.85Q48 20.25 47.85 20.55Q47.05 23.55 47.05 25.4Q47.05 28.55 48.85 31.1L49.55 30.75Q50.05 30.4 50.45 30.6Q50.9 31.2 50.75 31.8L50.45 32.9Q52.3 32.15 54.75 31.8Q56.7 29.95 59.2 24.7Q61.35 19.9 64.1 18.35Q65.65 19 65.95 20.95Q65.95 23.1 64.45 23.7Q63.7 25.35 60.8 28.3Q57.55 31.6 56.65 33.15Q60.75 32 61.8 32Q64.95 32 66.95 35.1L72.65 32.35Q76.35 30.2 78.55 28L79.8 26.3Q80.5 25.1 81.1 24.7L83.45 22.95L85.7 21.45L86.65 20.1Q87.2 19.3 87.75 19Q89.25 18.5 90.75 20.1Q92.15 21.75 91.35 23.8M29.65 98.8L28.65 99.8Q29.5 100.45 30.75 100.5L33.05 100.5Q31.6 97.2 30.1 97.45L29.65 98.8M73.75 82.4L73.75 82Q73.35 81.7 73.35 82.5L73.75 82.4M64 80.25Q64 80.85 64.4 80.8Q64.4 79.75 64.7 79.55Q67.9 79.3 67.2 74.95Q65.65 73.75 65.3 75.85Q64.75 78.9 64.05 79.45L64 80.25M64.05 82.75Q63.75 82.7 63.7 83.1Q63.6 83.7 63.15 83.75Q63.75 84.75 65.05 84.25L64.6 83.4L64.05 82.75M35.3 122Q35.3 123 35.75 122.7Q35.6 122.6 35.6 122.3L35.3 122" />
</g>
<g id="PathID_112" transform="matrix(-0.0184257, 0.275167, 0.23447, -0.00581384, 314.15, 261.45)" opacity="1">
</g>
</svg>
